<svg xmlns="http://www.w3.org/2000/svg" xmlns:xlink="http://www.w3.org/1999/xlink" width="890" height="711.3"><rect width="890" height="711.3" rx="5" ry="5" class="a"/><svg y="0%" x="0%"><circle cx="20" cy="20" r="6" fill="#ff5f58"/><circle cx="40" cy="20" r="6" fill="#ffbd2e"/><circle cx="60" cy="20" r="6" fill="#18c132"/></svg><svg height="651.3" viewBox="0 0 85 65.13" width="850" x="15" xmlns="http://www.w3.org/2000/svg" xmlns:xlink="http://www.w3.org/1999/xlink" y="50"><style>@keyframes k{0%{transform:translateX(-255px)}.4%{transform:translateX(-340px)}.7%{transform:translateX(-425px)}1.1%{transform:translateX(-510px)}1.5%{transform:translateX(-595px)}1.8%{transform:translateX(-680px)}2.2%{transform:translateX(-765px)}2.6%{transform:translateX(-850px)}2.9%{transform:translateX(-935px)}3.3%{transform:translateX(-1020px)}3.7%{transform:translateX(-1105px)}4%{transform:translateX(-1190px)}4.4%{transform:translateX(-1275px)}4.8%{transform:translateX(-1360px)}5.1%{transform:translateX(-1445px)}5.5%{transform:translateX(-1530px)}5.9%{transform:translateX(-1615px)}6.3%{transform:translateX(-1700px)}6.6%{transform:translateX(-1785px)}7%{transform:translateX(-1870px)}7.4%{transform:translateX(-1955px)}7.7%{transform:translateX(-2040px)}8.1%{transform:translateX(-2295px)}8.6%{transform:translateX(-2380px)}9.1%{transform:translateX(-2465px)}9.6%{transform:translateX(-2550px)}10.1%{transform:translateX(-2635px)}10.6%{transform:translateX(-2720px)}11%{transform:translateX(-2805px)}11.5%{transform:translateX(-2890px)}12%{transform:translateX(-2975px)}12.5%{transform:translateX(-3060px)}13%{transform:translateX(-3145px)}13.5%{transform:translateX(-3230px)}14%{transform:translateX(-3315px)}14.5%{transform:translateX(-3400px)}15%{transform:translateX(-3485px)}15.5%{transform:translateX(-3570px)}15.9%{transform:translateX(-3655px)}16.4%{transform:translateX(-3740px)}16.9%{transform:translateX(-3825px)}17.4%{transform:translateX(-4420px)}17.9%{transform:translateX(-4505px)}18.4%{transform:translateX(-4590px)}18.9%{transform:translateX(-4675px)}19.4%{transform:translateX(-4760px)}19.9%{transform:translateX(-4845px)}20.4%{transform:translateX(-4930px)}20.9%{transform:translateX(-5015px)}21.3%{transform:translateX(-5100px)}21.8%{transform:translateX(-5185px)}22.3%{transform:translateX(-5270px)}22.8%{transform:translateX(-5355px)}23.3%{transform:translateX(-5440px)}23.8%{transform:translateX(-5525px)}24.3%{transform:translateX(-5610px)}24.8%{transform:translateX(-5695px)}25.3%{transform:translateX(-5780px)}25.8%{transform:translateX(-5865px)}26.2%{transform:translateX(-5950px)}26.7%{transform:translateX(-6035px)}27.2%{transform:translateX(-6120px)}27.7%{transform:translateX(-6205px)}28.2%{transform:translateX(-6290px)}28.7%{transform:translateX(-6375px)}29.2%{transform:translateX(-6460px)}29.7%{transform:translateX(-6970px)}30.2%{transform:translateX(-7055px)}30.7%{transform:translateX(-7140px)}31.2%{transform:translateX(-7225px)}31.6%{transform:translateX(-7310px)}32.1%{transform:translateX(-7395px)}32.6%{transform:translateX(-7480px)}33.1%{transform:translateX(-7565px)}33.6%{transform:translateX(-7650px)}34.1%{transform:translateX(-7735px)}34.6%{transform:translateX(-7820px)}35.1%{transform:translateX(-7905px)}35.6%{transform:translateX(-7990px)}36.1%{transform:translateX(-8075px)}36.5%{transform:translateX(-8160px)}37%{transform:translateX(-8245px)}37.5%{transform:translateX(-8330px)}38%{transform:translateX(-8415px)}38.5%{transform:translateX(-8500px)}39%{transform:translateX(-10370px)}to{transform:translateX(-10455px)}}.a{fill:#282d35}.f,.g,.h,.i{fill:#66c2cd;white-space:pre}.g,.h,.i{fill:#a8cc8c}.h,.i{fill:#b9c0cb}.i{font-weight:700}</style><g font-family="Monaco,Consolas,Menlo,'Bitstream Vera Sans Mono','Powerline Symbols',monospace" font-size="1.67"><defs><symbol id="1"><text y="1.67" class="f">~</text><text x="2.004" y="1.67" class="g">❯</text><text x="4.008" y="1.67" class="h">/make-bib</text></symbol><symbol id="2"><text y="1.67" class="f">~</text><text x="2.004" y="1.67" class="g">❯</text><text x="4.008" y="1.67" class="h">/make-bib</text><text x="14.028" y="1.67" class="h">StreamingLLM</text></symbol><symbol id="3"><text y="1.67" class="f">⠋</text><text x="2.004" y="1.67" class="h">Searching</text><text x="12.024" y="1.67" class="h">Semantic</text><text x="21.042" y="1.67" class="h">Scholar...</text></symbol><symbol id="4"><text y="1.67" class="f">⠙</text><text x="2.004" y="1.67" class="h">Searching</text><text x="12.024" y="1.67" class="h">Semantic</text><text x="21.042" y="1.67" class="h">Scholar...</text></symbol><symbol id="5"><text y="1.67" class="f">⠹</text><text x="2.004" y="1.67" class="h">Searching</text><text x="12.024" y="1.67" class="h">Semantic</text><text x="21.042" y="1.67" class="h">Scholar...</text></symbol><symbol id="6"><text y="1.67" class="f">⠸</text><text x="2.004" y="1.67" class="h">Searching</text><text x="12.024" y="1.67" class="h">Semantic</text><text x="21.042" y="1.67" class="h">Scholar...</text></symbol><symbol id="7"><text y="1.67" class="f">⠼</text><text x="2.004" y="1.67" class="h">Searching</text><text x="12.024" y="1.67" class="h">Semantic</text><text x="21.042" y="1.67" class="h">Scholar...</text></symbol><symbol id="8"><text y="1.67" class="f">⠴</text><text x="2.004" y="1.67" class="h">Searching</text><text x="12.024" y="1.67" class="h">Semantic</text><text x="21.042" y="1.67" class="h">Scholar...</text></symbol><symbol id="9"><text y="1.67" class="f">⠦</text><text x="2.004" y="1.67" class="h">Searching</text><text x="12.024" y="1.67" class="h">Semantic</text><text x="21.042" y="1.67" class="h">Scholar...</text></symbol><symbol id="10"><text y="1.67" class="f">⠧</text><text x="2.004" y="1.67" class="h">Searching</text><text x="12.024" y="1.67" class="h">Semantic</text><text x="21.042" y="1.67" class="h">Scholar...</text></symbol><symbol id="11"><text y="1.67" class="f">⠇</text><text x="2.004" y="1.67" class="h">Searching</text><text x="12.024" y="1.67" class="h">Semantic</text><text x="21.042" y="1.67" class="h">Scholar...</text></symbol><symbol id="12"><text y="1.67" class="h">[dim]Found:</text><text x="12.024" y="1.67" class="h">&quot;Efficient</text><text x="23.046" y="1.67" class="h">Streaming</text><text x="33.066" y="1.67" class="h">Language</text><text x="42.084" y="1.67" class="h">Models</text><text x="49.098" y="1.67" class="h">with</text><text x="54.108" y="1.67" class="h">Attention</text><text x="64.128" y="1.67" class="h">Sinks&quot;[/dim]</text></symbol><symbol id="13"><text y="1.67" class="h">[dim]</text><text x="12.024" y="1.67" class="h">arXiv:2309.17453,</text><text x="30.06" y="1.67" class="h">DBLP:conf/iclr/XiaoTCHL24[/dim]</text></symbol><symbol id="14"><text y="1.67" class="f">⠋</text><text x="2.004" y="1.67" class="h">Confirming</text><text x="13.026" y="1.67" class="h">venue</text><text x="19.038" y="1.67" class="h">via</text><text x="23.046" y="1.67" class="h">DBLP...</text></symbol><symbol id="15"><text y="1.67" class="f">⠙</text><text x="2.004" y="1.67" class="h">Confirming</text><text x="13.026" y="1.67" class="h">venue</text><text x="19.038" y="1.67" class="h">via</text><text x="23.046" y="1.67" class="h">DBLP...</text></symbol><symbol id="16"><text y="1.67" class="f">⠹</text><text x="2.004" y="1.67" class="h">Confirming</text><text x="13.026" y="1.67" class="h">venue</text><text x="19.038" y="1.67" class="h">via</text><text x="23.046" y="1.67" class="h">DBLP...</text></symbol><symbol id="17"><text y="1.67" class="f">⠸</text><text x="2.004" y="1.67" class="h">Confirming</text><text x="13.026" y="1.67" class="h">venue</text><text x="19.038" y="1.67" class="h">via</text><text x="23.046" y="1.67" class="h">DBLP...</text></symbol><symbol id="18"><text y="1.67" class="f">⠼</text><text x="2.004" y="1.67" class="h">Confirming</text><text x="13.026" y="1.67" class="h">venue</text><text x="19.038" y="1.67" class="h">via</text><text x="23.046" y="1.67" class="h">DBLP...</text></symbol><symbol id="19"><text y="1.67" class="f">⠴</text><text x="2.004" y="1.67" class="h">Confirming</text><text x="13.026" y="1.67" class="h">venue</text><text x="19.038" y="1.67" class="h">via</text><text x="23.046" y="1.67" class="h">DBLP...</text></symbol><symbol id="20"><text y="1.67" class="f">⠦</text><text x="2.004" y="1.67" class="h">Confirming</text><text x="13.026" y="1.67" class="h">venue</text><text x="19.038" y="1.67" class="h">via</text><text x="23.046" y="1.67" class="h">DBLP...</text></symbol><symbol id="21"><text y="1.67" class="f">⠧</text><text x="2.004" y="1.67" class="h">Confirming</text><text x="13.026" y="1.67" class="h">venue</text><text x="19.038" y="1.67" class="h">via</text><text x="23.046" y="1.67" class="h">DBLP...</text></symbol><symbol id="22"><text y="1.67" class="f">⠇</text><text x="2.004" y="1.67" class="h">Confirming</text><text x="13.026" y="1.67" class="h">venue</text><text x="19.038" y="1.67" class="h">via</text><text x="23.046" y="1.67" class="h">DBLP...</text></symbol><symbol id="23"><text y="1.67" class="f">⠏</text><text x="2.004" y="1.67" class="h">Confirming</text><text x="13.026" y="1.67" class="h">venue</text><text x="19.038" y="1.67" class="h">via</text><text x="23.046" y="1.67" class="h">DBLP...</text></symbol><symbol id="24"><text y="1.67" class="g">✓</text><text x="2.004" y="1.67" class="h">Published</text><text x="12.024" y="1.67" class="h">at</text><text x="15.03" y="1.67" class="i">ICLR</text><text x="20.04" y="1.67" class="i">2024</text></symbol><symbol id="25"><text y="1.67" class="f">⠋</text><text x="2.004" y="1.67" class="h">Fetching</text><text x="11.022" y="1.67" class="h">BibTeX</text><text x="18.036" y="1.67" class="h">from</text><text x="23.046" y="1.67" class="h">DBLP</text><text x="28.056" y="1.67" class="h">(Tier</text><text x="34.068" y="1.67" class="h">2)...</text></symbol><symbol id="26"><text y="1.67" class="f">⠙</text><text x="2.004" y="1.67" class="h">Fetching</text><text x="11.022" y="1.67" class="h">BibTeX</text><text x="18.036" y="1.67" class="h">from</text><text x="23.046" y="1.67" class="h">DBLP</text><text x="28.056" y="1.67" class="h">(Tier</text><text x="34.068" y="1.67" class="h">2)...</text></symbol><symbol id="27"><text y="1.67" class="f">⠹</text><text x="2.004" y="1.67" class="h">Fetching</text><text x="11.022" y="1.67" class="h">BibTeX</text><text x="18.036" y="1.67" class="h">from</text><text x="23.046" y="1.67" class="h">DBLP</text><text x="28.056" y="1.67" class="h">(Tier</text><text x="34.068" y="1.67" class="h">2)...</text></symbol><symbol id="28"><text y="1.67" class="f">⠸</text><text x="2.004" y="1.67" class="h">Fetching</text><text x="11.022" y="1.67" class="h">BibTeX</text><text x="18.036" y="1.67" class="h">from</text><text x="23.046" y="1.67" class="h">DBLP</text><text x="28.056" y="1.67" class="h">(Tier</text><text x="34.068" y="1.67" class="h">2)...</text></symbol><symbol id="29"><text y="1.67" class="f">⠼</text><text x="2.004" y="1.67" class="h">Fetching</text><text x="11.022" y="1.67" class="h">BibTeX</text><text x="18.036" y="1.67" class="h">from</text><text x="23.046" y="1.67" class="h">DBLP</text><text x="28.056" y="1.67" class="h">(Tier</text><text x="34.068" y="1.67" class="h">2)...</text></symbol><symbol id="30"><text y="1.67" class="f">⠴</text><text x="2.004" y="1.67" class="h">Fetching</text><text x="11.022" y="1.67" class="h">BibTeX</text><text x="18.036" y="1.67" class="h">from</text><text x="23.046" y="1.67" class="h">DBLP</text><text x="28.056" y="1.67" class="h">(Tier</text><text x="34.068" y="1.67" class="h">2)...</text></symbol><symbol id="31"><text y="1.67" class="f">⠦</text><text x="2.004" y="1.67" class="h">Fetching</text><text x="11.022" y="1.67" class="h">BibTeX</text><text x="18.036" y="1.67" class="h">from</text><text x="23.046" y="1.67" class="h">DBLP</text><text x="28.056" y="1.67" class="h">(Tier</text><text x="34.068" y="1.67" class="h">2)...</text></symbol><symbol id="32"><text y="1.67" class="f">⠧</text><text x="2.004" y="1.67" class="h">Fetching</text><text x="11.022" y="1.67" class="h">BibTeX</text><text x="18.036" y="1.67" class="h">from</text><text x="23.046" y="1.67" class="h">DBLP</text><text x="28.056" y="1.67" class="h">(Tier</text><text x="34.068" y="1.67" class="h">2)...</text></symbol><symbol id="33"><text y="1.67" class="f">⠇</text><text x="2.004" y="1.67" class="h">Fetching</text><text x="11.022" y="1.67" class="h">BibTeX</text><text x="18.036" y="1.67" class="h">from</text><text x="23.046" y="1.67" class="h">DBLP</text><text x="28.056" y="1.67" class="h">(Tier</text><text x="34.068" y="1.67" class="h">2)...</text></symbol><symbol id="34"><text y="1.67" class="g">✓</text><text x="2.004" y="1.67" class="h">Checklist</text><text x="12.024" y="1.67" class="h">passed</text><text x="19.038" y="1.67" class="h">—</text><text x="21.042" y="1.67" class="h">entry</text><text x="27.054" y="1.67" class="h">type,</text><text x="33.066" y="1.67" class="h">venue,</text><text x="40.08" y="1.67" class="h">fields,</text><text x="48.096" y="1.67" class="h">key,</text><text x="53.106" y="1.67" class="h">source</text></symbol><symbol id="35"><text y="1.67" class="h">[dim]%</text><text x="7.014" y="1.67" class="h">source:</text><text x="15.03" y="1.67" class="h">dblp:conf/iclr/XiaoTCHL24</text><text x="41.082" y="1.67" class="h">via</text><text x="45.09" y="1.67" class="h">dblp[/dim]</text></symbol><symbol id="36"><text y="1.67" class="h">[dim]%</text><text x="9.018" y="1.67" class="h">(https://dblp.org/rec/conf/iclr/XiaoTCHL24.bib)[/dim]</text></symbol><symbol id="37"><text y="1.67" class="h">@inproceedings{xiao2024efficient,</text></symbol><symbol id="38"><text y="1.67" class="h">title</text><text x="10.02" y="1.67" class="h">=</text><text x="12.024" y="1.67" class="h">{Efficient</text><text x="23.046" y="1.67" class="h">Streaming</text><text x="33.066" y="1.67" class="h">Language</text><text x="42.084" y="1.67" class="h">Models</text></symbol><symbol id="39"><text y="1.67" class="h">with</text><text x="5.01" y="1.67" class="h">Attention</text><text x="15.03" y="1.67" class="h">Sinks},</text></symbol><symbol id="40"><text y="1.67" class="h">author</text><text x="10.02" y="1.67" class="h">=</text><text x="12.024" y="1.67" class="h">{Guangxuan</text><text x="23.046" y="1.67" class="h">Xiao</text><text x="28.056" y="1.67" class="h">and</text><text x="32.064" y="1.67" class="h">Yuandong</text><text x="41.082" y="1.67" class="h">Tian</text></symbol><symbol id="41"><text y="1.67" class="h">and</text><text x="4.008" y="1.67" class="h">Beidi</text><text x="10.02" y="1.67" class="h">Chen</text><text x="15.03" y="1.67" class="h">and</text><text x="19.038" y="1.67" class="h">Song</text><text x="24.048" y="1.67" class="h">Han</text></symbol><symbol id="42"><text y="1.67" class="h">and</text><text x="4.008" y="1.67" class="h">Mike</text><text x="9.018" y="1.67" class="h">Lewis},</text></symbol><symbol id="43"><text y="1.67" class="h">booktitle</text><text x="10.02" y="1.67" class="h">=</text><text x="12.024" y="1.67" class="h">{ICLR},</text></symbol><symbol id="44"><text y="1.67" class="h">year</text><text x="10.02" y="1.67" class="h">=</text><text x="12.024" y="1.67" class="h">{2024},</text></symbol><symbol id="45"><text y="1.67" class="h">}</text></symbol><symbol id="a"><path fill="transparent" d="M0 0h85v31H0z"/></symbol></defs><path class="a" d="M0 0h85v65.13H0z"/><g style="animation-duration:16.395s;animation-iteration-count:infinite;animation-name:k;animation-timing-function:steps(1,end)"><svg width="10540"><svg><use xlink:href="#a"/></svg><svg x="85"><use xlink:href="#a"/></svg><svg x="170"><use xlink:href="#a"/><text y="1.67" class="f">~</text><text x="2.004" y="1.67" class="g">❯</text></svg><svg x="255"><use xlink:href="#a"/><text y="1.67" class="f">~</text><text x="2.004" y="1.67" class="g">❯</text><text x="4.008" y="1.67" class="h">/</text></svg><svg x="340"><use xlink:href="#a"/><text y="1.67" class="f">~</text><text x="2.004" y="1.67" class="g">❯</text><text x="4.008" y="1.67" class="h">/m</text></svg><svg x="425"><use xlink:href="#a"/><text y="1.67" class="f">~</text><text x="2.004" y="1.67" class="g">❯</text><text x="4.008" y="1.67" class="h">/ma</text></svg><svg x="510"><use xlink:href="#a"/><text y="1.67" class="f">~</text><text x="2.004" y="1.67" class="g">❯</text><text x="4.008" y="1.67" class="h">/mak</text></svg><svg x="595"><use xlink:href="#a"/><text y="1.67" class="f">~</text><text x="2.004" y="1.67" class="g">❯</text><text x="4.008" y="1.67" class="h">/make</text></svg><svg x="680"><use xlink:href="#a"/><text y="1.67" class="f">~</text><text x="2.004" y="1.67" class="g">❯</text><text x="4.008" y="1.67" class="h">/make-</text></svg><svg x="765"><use xlink:href="#a"/><text y="1.67" class="f">~</text><text x="2.004" y="1.67" class="g">❯</text><text x="4.008" y="1.67" class="h">/make-b</text></svg><svg x="850"><use xlink:href="#a"/><text y="1.67" class="f">~</text><text x="2.004" y="1.67" class="g">❯</text><text x="4.008" y="1.67" class="h">/make-bi</text></svg><svg x="935"><use xlink:href="#a"/><use xlink:href="#1"/></svg><svg x="1020"><use xlink:href="#a"/><use xlink:href="#1"/></svg><svg x="1105"><use xlink:href="#a"/><text y="1.67" class="f">~</text><text x="2.004" y="1.67" class="g">❯</text><text x="4.008" y="1.67" class="h">/make-bib</text><text x="14.028" y="1.67" class="h">S</text></svg><svg x="1190"><use xlink:href="#a"/><text y="1.67" class="f">~</text><text x="2.004" y="1.67" class="g">❯</text><text x="4.008" y="1.67" class="h">/make-bib</text><text x="14.028" y="1.67" class="h">St</text></svg><svg x="1275"><use xlink:href="#a"/><text y="1.67" class="f">~</text><text x="2.004" y="1.67" class="g">❯</text><text x="4.008" y="1.67" class="h">/make-bib</text><text x="14.028" y="1.67" class="h">Str</text></svg><svg x="1360"><use xlink:href="#a"/><text y="1.67" class="f">~</text><text x="2.004" y="1.67" class="g">❯</text><text x="4.008" y="1.67" class="h">/make-bib</text><text x="14.028" y="1.67" class="h">Stre</text></svg><svg x="1445"><use xlink:href="#a"/><text y="1.67" class="f">~</text><text x="2.004" y="1.67" class="g">❯</text><text x="4.008" y="1.67" class="h">/make-bib</text><text x="14.028" y="1.67" class="h">Strea</text></svg><svg x="1530"><use xlink:href="#a"/><text y="1.67" class="f">~</text><text x="2.004" y="1.67" class="g">❯</text><text x="4.008" y="1.67" class="h">/make-bib</text><text x="14.028" y="1.67" class="h">Stream</text></svg><svg x="1615"><use xlink:href="#a"/><text y="1.67" class="f">~</text><text x="2.004" y="1.67" class="g">❯</text><text x="4.008" y="1.67" class="h">/make-bib</text><text x="14.028" y="1.67" class="h">Streami</text></svg><svg x="1700"><use xlink:href="#a"/><text y="1.67" class="f">~</text><text x="2.004" y="1.67" class="g">❯</text><text x="4.008" y="1.67" class="h">/make-bib</text><text x="14.028" y="1.67" class="h">Streamin</text></svg><svg x="1785"><use xlink:href="#a"/><text y="1.67" class="f">~</text><text x="2.004" y="1.67" class="g">❯</text><text x="4.008" y="1.67" class="h">/make-bib</text><text x="14.028" y="1.67" class="h">Streaming</text></svg><svg x="1870"><use xlink:href="#a"/><text y="1.67" class="f">~</text><text x="2.004" y="1.67" class="g">❯</text><text x="4.008" y="1.67" class="h">/make-bib</text><text x="14.028" y="1.67" class="h">StreamingL</text></svg><svg x="1955"><use xlink:href="#a"/><text y="1.67" class="f">~</text><text x="2.004" y="1.67" class="g">❯</text><text x="4.008" y="1.67" class="h">/make-bib</text><text x="14.028" y="1.67" class="h">StreamingLL</text></svg><svg x="2040"><use xlink:href="#a"/><use xlink:href="#2"/></svg><svg x="2125"><use xlink:href="#a"/><use xlink:href="#2"/></svg><svg x="2210"><use xlink:href="#a"/><use xlink:href="#2"/></svg><svg x="2295"><use xlink:href="#a"/><use xlink:href="#2"/><use xlink:href="#3" y="2.171"/></svg><svg x="2380"><use xlink:href="#a"/><use xlink:href="#2"/><use xlink:href="#4" y="2.171"/></svg><svg x="2465"><use xlink:href="#a"/><use xlink:href="#2"/><use xlink:href="#5" y="2.171"/></svg><svg x="2550"><use xlink:href="#a"/><use xlink:href="#2"/><use xlink:href="#6" y="2.171"/></svg><svg x="2635"><use xlink:href="#a"/><use xlink:href="#2"/><use xlink:href="#7" y="2.171"/></svg><svg x="2720"><use xlink:href="#a"/><use xlink:href="#2"/><use xlink:href="#8" y="2.171"/></svg><svg x="2805"><use xlink:href="#a"/><use xlink:href="#2"/><use xlink:href="#9" y="2.171"/></svg><svg x="2890"><use xlink:href="#a"/><use xlink:href="#2"/><use xlink:href="#10" y="2.171"/></svg><svg x="2975"><use xlink:href="#a"/><use xlink:href="#2"/><use xlink:href="#11" y="2.171"/></svg><svg x="3060"><use xlink:href="#a"/><use xlink:href="#2"/><text y="3.841" class="f">⠏</text><text x="2.004" y="3.841" class="h">Searching</text><text x="12.024" y="3.841" class="h">Semantic</text><text x="21.042" y="3.841" class="h">Scholar...</text></svg><svg x="3145"><use xlink:href="#a"/><use xlink:href="#2"/><use xlink:href="#3" y="2.171"/></svg><svg x="3230"><use xlink:href="#a"/><use xlink:href="#2"/><use xlink:href="#4" y="2.171"/></svg><svg x="3315"><use xlink:href="#a"/><use xlink:href="#2"/><use xlink:href="#5" y="2.171"/></svg><svg x="3400"><use xlink:href="#a"/><use xlink:href="#2"/><use xlink:href="#6" y="2.171"/></svg><svg x="3485"><use xlink:href="#a"/><use xlink:href="#2"/><use xlink:href="#7" y="2.171"/></svg><svg x="3570"><use xlink:href="#a"/><use xlink:href="#2"/><use xlink:href="#8" y="2.171"/></svg><svg x="3655"><use xlink:href="#a"/><use xlink:href="#2"/><use xlink:href="#9" y="2.171"/></svg><svg x="3740"><use xlink:href="#a"/><use xlink:href="#2"/><use xlink:href="#10" y="2.171"/></svg><svg x="3825"><use xlink:href="#a"/><use xlink:href="#2"/><use xlink:href="#11" y="2.171"/></svg><svg x="3910"><use xlink:href="#a"/><use xlink:href="#2"/></svg><svg x="3995"><use xlink:href="#a"/><use xlink:href="#2"/></svg><svg x="4080"><use xlink:href="#a"/><use xlink:href="#2"/><use xlink:href="#12" y="2.171"/></svg><svg x="4165"><use xlink:href="#a"/><use xlink:href="#2"/><use xlink:href="#12" y="2.171"/><use xlink:href="#13" y="4.342"/></svg><svg x="4250"><use xlink:href="#a"/><use xlink:href="#2"/><use xlink:href="#12" y="2.171"/><use xlink:href="#13" y="4.342"/></svg><svg x="4335"><use xlink:href="#a"/><use xlink:href="#2"/><use xlink:href="#12" y="2.171"/><use xlink:href="#13" y="4.342"/></svg><svg x="4420"><use xlink:href="#a"/><use xlink:href="#2"/><use xlink:href="#12" y="2.171"/><use xlink:href="#13" y="4.342"/><use xlink:href="#14" y="8.684"/></svg><svg x="4505"><use xlink:href="#a"/><use xlink:href="#2"/><use xlink:href="#12" y="2.171"/><use xlink:href="#13" y="4.342"/><use xlink:href="#15" y="8.684"/></svg><svg x="4590"><use xlink:href="#a"/><use xlink:href="#2"/><use xlink:href="#12" y="2.171"/><use xlink:href="#13" y="4.342"/><use xlink:href="#16" y="8.684"/></svg><svg x="4675"><use xlink:href="#a"/><use xlink:href="#2"/><use xlink:href="#12" y="2.171"/><use xlink:href="#13" y="4.342"/><use xlink:href="#17" y="8.684"/></svg><svg x="4760"><use xlink:href="#a"/><use xlink:href="#2"/><use xlink:href="#12" y="2.171"/><use xlink:href="#13" y="4.342"/><use xlink:href="#18" y="8.684"/></svg><svg x="4845"><use xlink:href="#a"/><use xlink:href="#2"/><use xlink:href="#12" y="2.171"/><use xlink:href="#13" y="4.342"/><use xlink:href="#19" y="8.684"/></svg><svg x="4930"><use xlink:href="#a"/><use xlink:href="#2"/><use xlink:href="#12" y="2.171"/><use xlink:href="#13" y="4.342"/><use xlink:href="#20" y="8.684"/></svg><svg x="5015"><use xlink:href="#a"/><use xlink:href="#2"/><use xlink:href="#12" y="2.171"/><use xlink:href="#13" y="4.342"/><use xlink:href="#21" y="8.684"/></svg><svg x="5100"><use xlink:href="#a"/><use xlink:href="#2"/><use xlink:href="#12" y="2.171"/><use xlink:href="#13" y="4.342"/><use xlink:href="#22" y="8.684"/></svg><svg x="5185"><use xlink:href="#a"/><use xlink:href="#2"/><use xlink:href="#12" y="2.171"/><use xlink:href="#13" y="4.342"/><use xlink:href="#23" y="8.684"/></svg><svg x="5270"><use xlink:href="#a"/><use xlink:href="#2"/><use xlink:href="#12" y="2.171"/><use xlink:href="#13" y="4.342"/><use xlink:href="#14" y="8.684"/></svg><svg x="5355"><use xlink:href="#a"/><use xlink:href="#2"/><use xlink:href="#12" y="2.171"/><use xlink:href="#13" y="4.342"/><use xlink:href="#15" y="8.684"/></svg><svg x="5440"><use xlink:href="#a"/><use xlink:href="#2"/><use xlink:href="#12" y="2.171"/><use xlink:href="#13" y="4.342"/><use xlink:href="#16" y="8.684"/></svg><svg x="5525"><use xlink:href="#a"/><use xlink:href="#2"/><use xlink:href="#12" y="2.171"/><use xlink:href="#13" y="4.342"/><use xlink:href="#17" y="8.684"/></svg><svg x="5610"><use xlink:href="#a"/><use xlink:href="#2"/><use xlink:href="#12" y="2.171"/><use xlink:href="#13" y="4.342"/><use xlink:href="#18" y="8.684"/></svg><svg x="5695"><use xlink:href="#a"/><use xlink:href="#2"/><use xlink:href="#12" y="2.171"/><use xlink:href="#13" y="4.342"/><use xlink:href="#19" y="8.684"/></svg><svg x="5780"><use xlink:href="#a"/><use xlink:href="#2"/><use xlink:href="#12" y="2.171"/><use xlink:href="#13" y="4.342"/><use xlink:href="#20" y="8.684"/></svg><svg x="5865"><use xlink:href="#a"/><use xlink:href="#2"/><use xlink:href="#12" y="2.171"/><use xlink:href="#13" y="4.342"/><use xlink:href="#21" y="8.684"/></svg><svg x="5950"><use xlink:href="#a"/><use xlink:href="#2"/><use xlink:href="#12" y="2.171"/><use xlink:href="#13" y="4.342"/><use xlink:href="#22" y="8.684"/></svg><svg x="6035"><use xlink:href="#a"/><use xlink:href="#2"/><use xlink:href="#12" y="2.171"/><use xlink:href="#13" y="4.342"/><use xlink:href="#23" y="8.684"/></svg><svg x="6120"><use xlink:href="#a"/><use xlink:href="#2"/><use xlink:href="#12" y="2.171"/><use xlink:href="#13" y="4.342"/><use xlink:href="#14" y="8.684"/></svg><svg x="6205"><use xlink:href="#a"/><use xlink:href="#2"/><use xlink:href="#12" y="2.171"/><use xlink:href="#13" y="4.342"/><use xlink:href="#15" y="8.684"/></svg><svg x="6290"><use xlink:href="#a"/><use xlink:href="#2"/><use xlink:href="#12" y="2.171"/><use xlink:href="#13" y="4.342"/><use xlink:href="#16" y="8.684"/></svg><svg x="6375"><use xlink:href="#a"/><use xlink:href="#2"/><use xlink:href="#12" y="2.171"/><use xlink:href="#13" y="4.342"/><use xlink:href="#17" y="8.684"/></svg><svg x="6460"><use xlink:href="#a"/><use xlink:href="#2"/><use xlink:href="#12" y="2.171"/><use xlink:href="#13" y="4.342"/><use xlink:href="#18" y="8.684"/></svg><svg x="6545"><use xlink:href="#a"/><use xlink:href="#2"/><use xlink:href="#12" y="2.171"/><use xlink:href="#13" y="4.342"/></svg><svg x="6630"><use xlink:href="#a"/><use xlink:href="#2"/><use xlink:href="#12" y="2.171"/><use xlink:href="#13" y="4.342"/></svg><svg x="6715"><use xlink:href="#a"/><use xlink:href="#2"/><use xlink:href="#12" y="2.171"/><use xlink:href="#13" y="4.342"/><use xlink:href="#24" y="8.684"/></svg><svg x="6800"><use xlink:href="#a"/><use xlink:href="#2"/><use xlink:href="#12" y="2.171"/><use xlink:href="#13" y="4.342"/><use xlink:href="#24" y="8.684"/></svg><svg x="6885"><use xlink:href="#a"/><use xlink:href="#2"/><use xlink:href="#12" y="2.171"/><use xlink:href="#13" y="4.342"/><use xlink:href="#24" y="8.684"/></svg><svg x="6970"><use xlink:href="#a"/><use xlink:href="#2"/><use xlink:href="#12" y="2.171"/><use xlink:href="#13" y="4.342"/><use xlink:href="#24" y="8.684"/><use xlink:href="#25" y="13.026"/></svg><svg x="7055"><use xlink:href="#a"/><use xlink:href="#2"/><use xlink:href="#12" y="2.171"/><use xlink:href="#13" y="4.342"/><use xlink:href="#24" y="8.684"/><use xlink:href="#26" y="13.026"/></svg><svg x="7140"><use xlink:href="#a"/><use xlink:href="#2"/><use xlink:href="#12" y="2.171"/><use xlink:href="#13" y="4.342"/><use xlink:href="#24" y="8.684"/><use xlink:href="#27" y="13.026"/></svg><svg x="7225"><use xlink:href="#a"/><use xlink:href="#2"/><use xlink:href="#12" y="2.171"/><use xlink:href="#13" y="4.342"/><use xlink:href="#24" y="8.684"/><use xlink:href="#28" y="13.026"/></svg><svg x="7310"><use xlink:href="#a"/><use xlink:href="#2"/><use xlink:href="#12" y="2.171"/><use xlink:href="#13" y="4.342"/><use xlink:href="#24" y="8.684"/><use xlink:href="#29" y="13.026"/></svg><svg x="7395"><use xlink:href="#a"/><use xlink:href="#2"/><use xlink:href="#12" y="2.171"/><use xlink:href="#13" y="4.342"/><use xlink:href="#24" y="8.684"/><use xlink:href="#30" y="13.026"/></svg><svg x="7480"><use xlink:href="#a"/><use xlink:href="#2"/><use xlink:href="#12" y="2.171"/><use xlink:href="#13" y="4.342"/><use xlink:href="#24" y="8.684"/><use xlink:href="#31" y="13.026"/></svg><svg x="7565"><use xlink:href="#a"/><use xlink:href="#2"/><use xlink:href="#12" y="2.171"/><use xlink:href="#13" y="4.342"/><use xlink:href="#24" y="8.684"/><use xlink:href="#32" y="13.026"/></svg><svg x="7650"><use xlink:href="#a"/><use xlink:href="#2"/><use xlink:href="#12" y="2.171"/><use xlink:href="#13" y="4.342"/><use xlink:href="#24" y="8.684"/><use xlink:href="#33" y="13.026"/></svg><svg x="7735"><use xlink:href="#a"/><use xlink:href="#2"/><use xlink:href="#12" y="2.171"/><use xlink:href="#13" y="4.342"/><use xlink:href="#24" y="8.684"/><text y="14.696" class="f">⠏</text><text x="2.004" y="14.696" class="h">Fetching</text><text x="11.022" y="14.696" class="h">BibTeX</text><text x="18.036" y="14.696" class="h">from</text><text x="23.046" y="14.696" class="h">DBLP</text><text x="28.056" y="14.696" class="h">(Tier</text><text x="34.068" y="14.696" class="h">2)...</text></svg><svg x="7820"><use xlink:href="#a"/><use xlink:href="#2"/><use xlink:href="#12" y="2.171"/><use xlink:href="#13" y="4.342"/><use xlink:href="#24" y="8.684"/><use xlink:href="#25" y="13.026"/></svg><svg x="7905"><use xlink:href="#a"/><use xlink:href="#2"/><use xlink:href="#12" y="2.171"/><use xlink:href="#13" y="4.342"/><use xlink:href="#24" y="8.684"/><use xlink:href="#26" y="13.026"/></svg><svg x="7990"><use xlink:href="#a"/><use xlink:href="#2"/><use xlink:href="#12" y="2.171"/><use xlink:href="#13" y="4.342"/><use xlink:href="#24" y="8.684"/><use xlink:href="#27" y="13.026"/></svg><svg x="8075"><use xlink:href="#a"/><use xlink:href="#2"/><use xlink:href="#12" y="2.171"/><use xlink:href="#13" y="4.342"/><use xlink:href="#24" y="8.684"/><use xlink:href="#28" y="13.026"/></svg><svg x="8160"><use xlink:href="#a"/><use xlink:href="#2"/><use xlink:href="#12" y="2.171"/><use xlink:href="#13" y="4.342"/><use xlink:href="#24" y="8.684"/><use xlink:href="#29" y="13.026"/></svg><svg x="8245"><use xlink:href="#a"/><use xlink:href="#2"/><use xlink:href="#12" y="2.171"/><use xlink:href="#13" y="4.342"/><use xlink:href="#24" y="8.684"/><use xlink:href="#30" y="13.026"/></svg><svg x="8330"><use xlink:href="#a"/><use xlink:href="#2"/><use xlink:href="#12" y="2.171"/><use xlink:href="#13" y="4.342"/><use xlink:href="#24" y="8.684"/><use xlink:href="#31" y="13.026"/></svg><svg x="8415"><use xlink:href="#a"/><use xlink:href="#2"/><use xlink:href="#12" y="2.171"/><use xlink:href="#13" y="4.342"/><use xlink:href="#24" y="8.684"/><use xlink:href="#32" y="13.026"/></svg><svg x="8500"><use xlink:href="#a"/><use xlink:href="#2"/><use xlink:href="#12" y="2.171"/><use xlink:href="#13" y="4.342"/><use xlink:href="#24" y="8.684"/><use xlink:href="#33" y="13.026"/></svg><svg x="8585"><use xlink:href="#a"/><use xlink:href="#2"/><use xlink:href="#12" y="2.171"/><use xlink:href="#13" y="4.342"/><use xlink:href="#24" y="8.684"/></svg><svg x="8670"><use xlink:href="#a"/><use xlink:href="#2"/><use xlink:href="#12" y="2.171"/><use xlink:href="#13" y="4.342"/><use xlink:href="#24" y="8.684"/></svg><svg x="8755"><use xlink:href="#a"/><use xlink:href="#2"/><use xlink:href="#12" y="2.171"/><use xlink:href="#13" y="4.342"/><use xlink:href="#24" y="8.684"/><use xlink:href="#34" y="13.026"/></svg><svg x="8840"><use xlink:href="#a"/><use xlink:href="#2"/><use xlink:href="#12" y="2.171"/><use xlink:href="#13" y="4.342"/><use xlink:href="#24" y="8.684"/><use xlink:href="#34" y="13.026"/></svg><svg x="8925"><use xlink:href="#a"/><use xlink:href="#2"/><use xlink:href="#12" y="2.171"/><use xlink:href="#13" y="4.342"/><use xlink:href="#24" y="8.684"/><use xlink:href="#34" y="13.026"/><use xlink:href="#35" y="17.368"/></svg><svg x="9010"><use xlink:href="#a"/><use xlink:href="#2"/><use xlink:href="#12" y="2.171"/><use xlink:href="#13" y="4.342"/><use xlink:href="#24" y="8.684"/><use xlink:href="#34" y="13.026"/><use xlink:href="#35" y="17.368"/><use xlink:href="#36" y="19.539"/></svg><svg x="9095"><use xlink:href="#a"/><use xlink:href="#2"/><use xlink:href="#12" y="2.171"/><use xlink:href="#13" y="4.342"/><use xlink:href="#24" y="8.684"/><use xlink:href="#34" y="13.026"/><use xlink:href="#35" y="17.368"/><use xlink:href="#36" y="19.539"/><use xlink:href="#37" y="21.71"/></svg><svg x="9180"><use xlink:href="#a"/><use xlink:href="#2"/><use xlink:href="#12" y="2.171"/><use xlink:href="#13" y="4.342"/><use xlink:href="#24" y="8.684"/><use xlink:href="#34" y="13.026"/><use xlink:href="#35" y="17.368"/><use xlink:href="#36" y="19.539"/><use xlink:href="#37" y="21.71"/><use xlink:href="#38" y="23.881"/></svg><svg x="9265"><use xlink:href="#a"/><use xlink:href="#2"/><use xlink:href="#12" y="2.171"/><use xlink:href="#13" y="4.342"/><use xlink:href="#24" y="8.684"/><use xlink:href="#34" y="13.026"/><use xlink:href="#35" y="17.368"/><use xlink:href="#36" y="19.539"/><use xlink:href="#37" y="21.71"/><use xlink:href="#38" y="23.881"/><use xlink:href="#39" y="26.052"/></svg><svg x="9350"><use xlink:href="#a"/><use xlink:href="#2"/><use xlink:href="#12" y="2.171"/><use xlink:href="#13" y="4.342"/><use xlink:href="#24" y="8.684"/><use xlink:href="#34" y="13.026"/><use xlink:href="#35" y="17.368"/><use xlink:href="#36" y="19.539"/><use xlink:href="#37" y="21.71"/><use xlink:href="#38" y="23.881"/><use xlink:href="#39" y="26.052"/><use xlink:href="#40" y="28.223"/></svg><svg x="9435"><use xlink:href="#a"/><use xlink:href="#2"/><use xlink:href="#12" y="2.171"/><use xlink:href="#13" y="4.342"/><use xlink:href="#24" y="8.684"/><use xlink:href="#34" y="13.026"/><use xlink:href="#35" y="17.368"/><use xlink:href="#36" y="19.539"/><use xlink:href="#37" y="21.71"/><use xlink:href="#38" y="23.881"/><use xlink:href="#39" y="26.052"/><use xlink:href="#40" y="28.223"/><use xlink:href="#41" y="30.394"/></svg><svg x="9520"><use xlink:href="#a"/><use xlink:href="#2"/><use xlink:href="#12" y="2.171"/><use xlink:href="#13" y="4.342"/><use xlink:href="#24" y="8.684"/><use xlink:href="#34" y="13.026"/><use xlink:href="#35" y="17.368"/><use xlink:href="#36" y="19.539"/><use xlink:href="#37" y="21.71"/><use xlink:href="#38" y="23.881"/><use xlink:href="#39" y="26.052"/><use xlink:href="#40" y="28.223"/><use xlink:href="#41" y="30.394"/><use xlink:href="#42" y="32.565"/></svg><svg x="9605"><use xlink:href="#a"/><use xlink:href="#2"/><use xlink:href="#12" y="2.171"/><use xlink:href="#13" y="4.342"/><use xlink:href="#24" y="8.684"/><use xlink:href="#34" y="13.026"/><use xlink:href="#35" y="17.368"/><use xlink:href="#36" y="19.539"/><use xlink:href="#37" y="21.71"/><use xlink:href="#38" y="23.881"/><use xlink:href="#39" y="26.052"/><use xlink:href="#40" y="28.223"/><use xlink:href="#41" y="30.394"/><use xlink:href="#42" y="32.565"/><use xlink:href="#43" y="34.736"/></svg><svg x="9690"><use xlink:href="#a"/><use xlink:href="#2"/><use xlink:href="#12" y="2.171"/><use xlink:href="#13" y="4.342"/><use xlink:href="#24" y="8.684"/><use xlink:href="#34" y="13.026"/><use xlink:href="#35" y="17.368"/><use xlink:href="#36" y="19.539"/><use xlink:href="#37" y="21.71"/><use xlink:href="#38" y="23.881"/><use xlink:href="#39" y="26.052"/><use xlink:href="#40" y="28.223"/><use xlink:href="#41" y="30.394"/><use xlink:href="#42" y="32.565"/><use xlink:href="#43" y="34.736"/><use xlink:href="#44" y="36.907"/></svg><svg x="9775"><use xlink:href="#a"/><use xlink:href="#2"/><use xlink:href="#12" y="2.171"/><use xlink:href="#13" y="4.342"/><use xlink:href="#24" y="8.684"/><use xlink:href="#34" y="13.026"/><use xlink:href="#35" y="17.368"/><use xlink:href="#36" y="19.539"/><use xlink:href="#37" y="21.71"/><use xlink:href="#38" y="23.881"/><use xlink:href="#39" y="26.052"/><use xlink:href="#40" y="28.223"/><use xlink:href="#41" y="30.394"/><use xlink:href="#42" y="32.565"/><use xlink:href="#43" y="34.736"/><use xlink:href="#44" y="36.907"/><use xlink:href="#45" y="39.078"/></svg><svg x="9860"><use xlink:href="#a"/><use xlink:href="#2"/><use xlink:href="#12" y="2.171"/><use xlink:href="#13" y="4.342"/><use xlink:href="#24" y="8.684"/><use xlink:href="#34" y="13.026"/><use xlink:href="#35" y="17.368"/><use xlink:href="#36" y="19.539"/><use xlink:href="#37" y="21.71"/><use xlink:href="#38" y="23.881"/><use xlink:href="#39" y="26.052"/><use xlink:href="#40" y="28.223"/><use xlink:href="#41" y="30.394"/><use xlink:href="#42" y="32.565"/><use xlink:href="#43" y="34.736"/><use xlink:href="#44" y="36.907"/><use xlink:href="#45" y="39.078"/></svg><svg x="9945"><use xlink:href="#a"/><use xlink:href="#2"/><use xlink:href="#12" y="2.171"/><use xlink:href="#13" y="4.342"/><use xlink:href="#24" y="8.684"/><use xlink:href="#34" y="13.026"/><use xlink:href="#35" y="17.368"/><use xlink:href="#36" y="19.539"/><use xlink:href="#37" y="21.71"/><use xlink:href="#38" y="23.881"/><use xlink:href="#39" y="26.052"/><use xlink:href="#40" y="28.223"/><use xlink:href="#41" y="30.394"/><use xlink:href="#42" y="32.565"/><use xlink:href="#43" y="34.736"/><use xlink:href="#44" y="36.907"/><use xlink:href="#45" y="39.078"/></svg><svg x="10030"><use xlink:href="#a"/><use xlink:href="#2"/><use xlink:href="#12" y="2.171"/><use xlink:href="#13" y="4.342"/><use xlink:href="#24" y="8.684"/><use xlink:href="#34" y="13.026"/><use xlink:href="#35" y="17.368"/><use xlink:href="#36" y="19.539"/><use xlink:href="#37" y="21.71"/><use xlink:href="#38" y="23.881"/><use xlink:href="#39" y="26.052"/><use xlink:href="#40" y="28.223"/><use xlink:href="#41" y="30.394"/><use xlink:href="#42" y="32.565"/><use xlink:href="#43" y="34.736"/><use xlink:href="#44" y="36.907"/><use xlink:href="#45" y="39.078"/></svg><svg x="10115"><use xlink:href="#a"/><use xlink:href="#2"/><use xlink:href="#12" y="2.171"/><use xlink:href="#13" y="4.342"/><use xlink:href="#24" y="8.684"/><use xlink:href="#34" y="13.026"/><use xlink:href="#35" y="17.368"/><use xlink:href="#36" y="19.539"/><use xlink:href="#37" y="21.71"/><use xlink:href="#38" y="23.881"/><use xlink:href="#39" y="26.052"/><use xlink:href="#40" y="28.223"/><use xlink:href="#41" y="30.394"/><use xlink:href="#42" y="32.565"/><use xlink:href="#43" y="34.736"/><use xlink:href="#44" y="36.907"/><use xlink:href="#45" y="39.078"/></svg><svg x="10200"><use xlink:href="#a"/><use xlink:href="#2"/><use xlink:href="#12" y="2.171"/><use xlink:href="#13" y="4.342"/><use xlink:href="#24" y="8.684"/><use xlink:href="#34" y="13.026"/><use xlink:href="#35" y="17.368"/><use xlink:href="#36" y="19.539"/><use xlink:href="#37" y="21.71"/><use xlink:href="#38" y="23.881"/><use xlink:href="#39" y="26.052"/><use xlink:href="#40" y="28.223"/><use xlink:href="#41" y="30.394"/><use xlink:href="#42" y="32.565"/><use xlink:href="#43" y="34.736"/><use xlink:href="#44" y="36.907"/><use xlink:href="#45" y="39.078"/></svg><svg x="10285"><use xlink:href="#a"/><use xlink:href="#2"/><use xlink:href="#12" y="2.171"/><use xlink:href="#13" y="4.342"/><use xlink:href="#24" y="8.684"/><use xlink:href="#34" y="13.026"/><use xlink:href="#35" y="17.368"/><use xlink:href="#36" y="19.539"/><use xlink:href="#37" y="21.71"/><use xlink:href="#38" y="23.881"/><use xlink:href="#39" y="26.052"/><use xlink:href="#40" y="28.223"/><use xlink:href="#41" y="30.394"/><use xlink:href="#42" y="32.565"/><use xlink:href="#43" y="34.736"/><use xlink:href="#44" y="36.907"/><use xlink:href="#45" y="39.078"/></svg><svg x="10370"><use xlink:href="#a"/><use xlink:href="#2"/><use xlink:href="#12" y="2.171"/><use xlink:href="#13" y="4.342"/><use xlink:href="#24" y="8.684"/><use xlink:href="#34" y="13.026"/><use xlink:href="#35" y="17.368"/><use xlink:href="#36" y="19.539"/><use xlink:href="#37" y="21.71"/><use xlink:href="#38" y="23.881"/><use xlink:href="#39" y="26.052"/><use xlink:href="#40" y="28.223"/><use xlink:href="#41" y="30.394"/><use xlink:href="#42" y="32.565"/><use xlink:href="#43" y="34.736"/><use xlink:href="#44" y="36.907"/><use xlink:href="#45" y="39.078"/></svg><svg x="10455"><use xlink:href="#a"/><use xlink:href="#2"/><use xlink:href="#12" y="2.171"/><use xlink:href="#13" y="4.342"/><use xlink:href="#24" y="8.684"/><use xlink:href="#34" y="13.026"/><use xlink:href="#35" y="17.368"/><use xlink:href="#36" y="19.539"/><use xlink:href="#37" y="21.71"/><use xlink:href="#38" y="23.881"/><use xlink:href="#39" y="26.052"/><use xlink:href="#40" y="28.223"/><use xlink:href="#41" y="30.394"/><use xlink:href="#42" y="32.565"/><use xlink:href="#43" y="34.736"/><use xlink:href="#44" y="36.907"/><use xlink:href="#45" y="39.078"/></svg></svg></g></g></svg></svg>